<svg width="512" height="512" viewBox="0 0 512 512" fill="none" xmlns="http://www.w3.org/2000/svg">
<g clip-path="url(#clip0)">
<path d="M168.203 428.859H139.562V459H130.562V390.75H172.844V398.156H139.562V421.5H168.203V428.859ZM191.688 459H183.016V408.281H191.688V459ZM182.312 394.828C182.312 393.422 182.734 392.234 183.578 391.266C184.453 390.297 185.734 389.812 187.422 389.812C189.109 389.812 190.391 390.297 191.266 391.266C192.141 392.234 192.578 393.422 192.578 394.828C192.578 396.234 192.141 397.406 191.266 398.344C190.391 399.281 189.109 399.75 187.422 399.75C185.734 399.75 184.453 399.281 183.578 398.344C182.734 397.406 182.312 396.234 182.312 394.828ZM203.547 433.219C203.547 425.312 205.375 419.031 209.031 414.375C212.688 409.688 217.531 407.344 223.562 407.344C229.75 407.344 234.578 409.531 238.047 413.906L238.469 408.281H246.391V457.781C246.391 464.344 244.438 469.516 240.531 473.297C236.656 477.078 231.438 478.969 224.875 478.969C221.219 478.969 217.641 478.188 214.141 476.625C210.641 475.062 207.969 472.922 206.125 470.203L210.625 465C214.344 469.594 218.891 471.891 224.266 471.891C228.484 471.891 231.766 470.703 234.109 468.328C236.484 465.953 237.672 462.609 237.672 458.297V453.938C234.203 457.938 229.469 459.938 223.469 459.938C217.531 459.938 212.719 457.547 209.031 452.766C205.375 447.984 203.547 441.469 203.547 433.219ZM212.266 434.203C212.266 439.922 213.438 444.422 215.781 447.703C218.125 450.953 221.406 452.578 225.625 452.578C231.094 452.578 235.109 450.094 237.672 445.125V421.969C235.016 417.125 231.031 414.703 225.719 414.703C221.5 414.703 218.203 416.344 215.828 419.625C213.453 422.906 212.266 427.766 212.266 434.203ZM267.672 408.281L267.906 413.906C271.625 409.531 276.641 407.344 282.953 407.344C290.047 407.344 294.875 410.062 297.438 415.5C299.125 413.062 301.312 411.094 304 409.594C306.719 408.094 309.922 407.344 313.609 407.344C324.734 407.344 330.391 413.234 330.578 425.016V459H321.906V425.531C321.906 421.906 321.078 419.203 319.422 417.422C317.766 415.609 314.984 414.703 311.078 414.703C307.859 414.703 305.188 415.672 303.062 417.609C300.938 419.516 299.703 422.094 299.359 425.344V459H290.641V425.766C290.641 418.391 287.031 414.703 279.812 414.703C274.125 414.703 270.234 417.125 268.141 421.969V459H259.469V408.281H267.672ZM375.016 459C374.516 458 374.109 456.219 373.797 453.656C369.766 457.844 364.953 459.938 359.359 459.938C354.359 459.938 350.25 458.531 347.031 455.719C343.844 452.875 342.25 449.281 342.25 444.938C342.25 439.656 344.25 435.562 348.25 432.656C352.281 429.719 357.938 428.25 365.219 428.25H373.656V424.266C373.656 421.234 372.75 418.828 370.938 417.047C369.125 415.234 366.453 414.328 362.922 414.328C359.828 414.328 357.234 415.109 355.141 416.672C353.047 418.234 352 420.125 352 422.344H343.281C343.281 419.812 344.172 417.375 345.953 415.031C347.766 412.656 350.203 410.781 353.266 409.406C356.359 408.031 359.75 407.344 363.438 407.344C369.281 407.344 373.859 408.812 377.172 411.75C380.484 414.656 382.203 418.672 382.328 423.797V447.141C382.328 451.797 382.922 455.5 384.109 458.25V459H375.016ZM360.625 452.391C363.344 452.391 365.922 451.688 368.359 450.281C370.797 448.875 372.562 447.047 373.656 444.797V434.391H366.859C356.234 434.391 350.922 437.5 350.922 443.719C350.922 446.438 351.828 448.562 353.641 450.094C355.453 451.625 357.781 452.391 360.625 452.391Z" fill="black"/>
<path d="M210.999 350.999C235.852 350.999 255.999 330.852 255.999 305.999V260.999H210.999C186.146 260.999 165.999 281.147 165.999 305.999C165.999 330.852 186.146 350.999 210.999 350.999Z" fill="#0ACF83"/>
<path d="M165.999 216C165.999 191.146 186.146 171 210.999 171H255.999V261H210.999C186.146 261 165.999 240.852 165.999 216Z" fill="#A259FF"/>
<path d="M165.999 126C165.999 101.147 186.146 80.9999 210.999 80.9999H255.999V171H210.999C186.146 171 165.999 150.852 165.999 126Z" fill="#F24E1E"/>
<path d="M256 80.9999H301C325.853 80.9999 346 101.147 346 126C346 150.852 325.853 171 301 171H256V80.9999Z" fill="#FF7262"/>
<path d="M346 216C346 240.852 325.853 261 301 261C276.147 261 256 240.852 256 216C256 191.146 276.147 171 301 171C325.853 171 346 191.146 346 216Z" fill="#1ABCFE"/>
</g>
<defs>
<clipPath id="clip0">
<rect width="512" height="512" fill="white"/>
</clipPath>
</defs>
</svg>
