<svg width="444" height="444" viewBox="0 0 444 444" fill="none" xmlns="http://www.w3.org/2000/svg">
<g clip-path="url(#clip0_1_3)">
<path d="M286.919 182.033H355.547V194.7H328.323V261.339H314.71V194.7H286.919V182.033Z" fill="black"/>
<path d="M174.052 182.033V194.7H119.042V215.077H163.281V227.744H119.042V248.672H174.052V261.339H105.43V194.7H105.424V182.033H174.052Z" fill="black"/>
<path d="M208.32 182.066H190.506L254.312 261.372H272.178L240.271 221.746L272.127 182.127L254.312 182.154L231.352 210.67L208.32 182.066Z" fill="black"/>
<path d="M226.6 238.715L217.679 227.623L190.455 261.433H208.32L226.6 238.715Z" fill="black"/>
<path fill-rule="evenodd" clip-rule="evenodd" d="M105.907 261.339L42.0151 182H25V261.306H38.6121V198.952L88.8067 261.339H105.907Z" fill="black"/>
<path d="M358.607 260.855C357.61 260.855 356.762 260.509 356.052 259.819C355.342 259.128 354.991 258.292 355 257.301C354.991 256.338 355.342 255.511 356.052 254.82C356.762 254.129 357.61 253.784 358.607 253.784C359.566 253.784 360.405 254.129 361.115 254.82C361.835 255.511 362.194 256.338 362.204 257.301C362.194 257.955 362.028 258.555 361.696 259.091C361.355 259.637 360.922 260.064 360.377 260.373C359.842 260.691 359.252 260.855 358.607 260.855Z" fill="black"/>
<path d="M381.84 227.445H387.872V250.685C387.863 252.82 387.401 254.647 386.498 256.183C385.585 257.719 384.321 258.891 382.698 259.718C381.084 260.536 379.193 260.955 377.044 260.955C375.079 260.955 373.318 260.6 371.75 259.909C370.182 259.219 368.937 258.183 368.024 256.819C367.101 255.456 366.649 253.757 366.649 251.721H372.691C372.7 252.611 372.903 253.384 373.29 254.029C373.677 254.674 374.212 255.165 374.895 255.51C375.586 255.856 376.38 256.029 377.274 256.029C378.243 256.029 379.073 255.829 379.746 255.42C380.419 255.02 380.936 254.42 381.296 253.62C381.646 252.83 381.831 251.848 381.84 250.685V227.445Z" fill="black"/>
<path d="M412.691 236.534C412.544 235.125 411.898 234.025 410.773 233.244C409.638 232.453 408.172 232.062 406.373 232.062C405.11 232.062 404.022 232.253 403.118 232.626C402.214 233.008 401.513 233.516 401.033 234.162C400.554 234.807 400.314 235.543 400.295 236.37C400.295 237.061 400.461 237.661 400.784 238.161C401.107 238.67 401.54 239.097 402.103 239.442C402.656 239.797 403.274 240.087 403.948 240.324C404.63 240.56 405.313 240.76 405.995 240.924L409.14 241.696C410.404 241.987 411.631 242.378 412.802 242.878C413.973 243.368 415.034 243.996 415.965 244.75C416.897 245.504 417.635 246.413 418.179 247.476C418.723 248.54 419 249.785 419 251.221C419 253.157 418.502 254.856 417.496 256.328C416.491 257.792 415.043 258.937 413.143 259.764C411.252 260.582 408.965 261 406.272 261C403.671 261 401.402 260.6 399.493 259.8C397.575 259.01 396.08 257.846 395.001 256.319C393.922 254.793 393.341 252.929 393.258 250.739H399.235C399.318 251.884 399.687 252.839 400.314 253.611C400.95 254.374 401.78 254.938 402.795 255.32C403.819 255.692 404.962 255.883 406.226 255.883C407.545 255.883 408.707 255.683 409.712 255.292C410.708 254.902 411.492 254.356 412.055 253.647C412.627 252.948 412.913 252.121 412.922 251.175C412.913 250.312 412.654 249.594 412.156 249.03C411.649 248.467 410.948 247.994 410.053 247.613C409.15 247.231 408.098 246.886 406.899 246.586L403.081 245.622C400.323 244.922 398.137 243.859 396.541 242.432C394.937 241.005 394.143 239.115 394.143 236.743C394.143 234.798 394.678 233.089 395.758 231.626C396.827 230.163 398.294 229.027 400.148 228.218C402.011 227.4 404.114 227 406.456 227C408.836 227 410.92 227.4 412.719 228.218C414.517 229.027 415.929 230.154 416.952 231.59C417.976 233.026 418.511 234.671 418.539 236.534H412.691Z" fill="black"/>
</g>
<defs>
<clipPath id="clip0_1_3">
<rect width="394" height="79" fill="white" transform="translate(25 182)"/>
</clipPath>
</defs>
</svg>
