<svg width="63" height="63" viewBox="0 0 63 63" fill="none" xmlns="http://www.w3.org/2000/svg">
<mask id="mask0_1_56" style="mask-type:luminance" maskUnits="userSpaceOnUse" x="12" y="5" width="39" height="53">
<path d="M45.4 16.7987C45.3484 16.4837 45.1744 16.2019 44.9159 16.0146C44.6574 15.8273 44.3354 15.7497 44.02 15.7987C43.7721 15.8317 43.5429 15.9481 43.37 16.1287L37.13 22.3587L32.25 13.0387C32.1772 12.8988 32.0775 12.7746 31.9567 12.6732C31.8359 12.5718 31.6962 12.4952 31.5457 12.4479C31.3953 12.4005 31.237 12.3832 31.0798 12.3971C30.9227 12.411 30.7698 12.4557 30.63 12.5287C30.4181 12.6509 30.2422 12.8268 30.12 13.0387L27.46 18.1387L20.75 5.61874C20.6748 5.48124 20.5731 5.35997 20.4509 5.26187C20.3286 5.16378 20.1882 5.0908 20.0377 5.04713C19.8871 5.00346 19.7295 4.98995 19.5737 5.00739C19.4179 5.02482 19.2671 5.07286 19.13 5.14874C18.9672 5.23564 18.826 5.35807 18.717 5.50694C18.6079 5.65581 18.5338 5.82731 18.5 6.00874L12 47.5287L29.35 57.3087C29.8849 57.602 30.485 57.7557 31.095 57.7557C31.705 57.7557 32.3051 57.602 32.84 57.3087L50.34 47.5687L45.4 16.7987Z" fill="white"/>
</mask>
<g mask="url(#mask0_1_56)">
<path d="M12 47.5287L18.5 6.00874C18.5493 5.70183 18.7176 5.42674 18.9685 5.24325C19.2194 5.05975 19.5326 4.98267 19.84 5.02874C20.0216 5.06204 20.1936 5.13483 20.344 5.24197C20.4943 5.34911 20.6193 5.48797 20.71 5.64874L27.42 18.1787L30.08 13.0787C30.1528 12.9388 30.2525 12.8146 30.3733 12.7132C30.4941 12.6118 30.6338 12.5352 30.7843 12.4879C30.9347 12.4405 31.0931 12.4233 31.2502 12.4371C31.4073 12.451 31.5602 12.4957 31.7 12.5687C31.9119 12.6909 32.0878 12.8668 32.21 13.0787L50.31 47.5287H12Z" fill="#FFA000"/>
<path opacity="0.12" d="M34.1699 5.30874L2.40991 2.59874V60.1187L11.9999 47.5287L34.1699 5.30874Z" fill="url(#paint0_linear_1_56)"/>
<path d="M34.44 31.3587L27.44 18.1487L12 47.5287L34.44 31.3587Z" fill="#F57C00"/>
<path opacity="0.2" d="M2.40991 2.59874H59.9299V60.1187H2.40991V2.59874Z" fill="url(#paint1_linear_1_56)"/>
<path d="M50.35 47.5287L45.35 16.7687C45.2984 16.4537 45.1244 16.1719 44.8659 15.9846C44.6074 15.7973 44.2854 15.7197 43.97 15.7687C43.7228 15.8039 43.4943 15.92 43.32 16.0987L12 47.5287L29.35 57.3087C29.8849 57.602 30.485 57.7557 31.095 57.7557C31.705 57.7557 32.3051 57.602 32.84 57.3087L50.35 47.5287Z" fill="#FFCA28"/>
<path d="M45.4 16.7987C45.3484 16.4837 45.1744 16.2019 44.9159 16.0146C44.6574 15.8273 44.3354 15.7497 44.02 15.7987C43.7721 15.8317 43.5429 15.9481 43.37 16.1287L37.13 22.3587L32.25 13.0387C32.1772 12.8988 32.0775 12.7746 31.9567 12.6732C31.8359 12.5718 31.6962 12.4952 31.5457 12.4479C31.3953 12.4005 31.237 12.3832 31.0798 12.3971C30.9227 12.411 30.7698 12.4557 30.63 12.5287C30.4181 12.6509 30.2422 12.8268 30.12 13.0387L27.46 18.1387L20.75 5.61874C20.6748 5.48124 20.5731 5.35997 20.4509 5.26187C20.3286 5.16378 20.1882 5.0908 20.0377 5.04713C19.8871 5.00346 19.7295 4.98995 19.5737 5.00739C19.4179 5.02482 19.2671 5.07286 19.13 5.14874C18.9672 5.23564 18.826 5.35807 18.717 5.50694C18.6079 5.65581 18.5338 5.82731 18.5 6.00874L12 47.5287L12.18 47.6187L37.18 22.6187L43.42 16.3887C43.5301 16.2744 43.6621 16.1835 43.8082 16.1213C43.9542 16.0592 44.1113 16.0272 44.27 16.0272C44.4287 16.0272 44.5858 16.0592 44.7318 16.1213C44.8779 16.1835 45.0099 16.2744 45.12 16.3887C45.3048 16.5626 45.4217 16.7966 45.45 17.0487L50.37 47.5087H50.43L45.4 16.7987ZM12.06 47.4687L18.5 6.30874C18.5208 6.1544 18.5721 6.00577 18.6511 5.87154C18.73 5.73731 18.835 5.6202 18.9598 5.52706C19.0846 5.43393 19.2267 5.36664 19.3779 5.32915C19.529 5.29166 19.6861 5.28472 19.84 5.30874C20.0223 5.34002 20.1952 5.41201 20.3458 5.51935C20.4965 5.6267 20.6209 5.76663 20.71 5.92874L27.42 18.4587L30.08 13.3587C30.1518 13.2178 30.2509 13.0927 30.3716 12.9905C30.4923 12.8884 30.6322 12.8113 30.783 12.7638C30.9338 12.7164 31.0926 12.6994 31.25 12.714C31.4075 12.7286 31.5605 12.7744 31.7 12.8487C31.9119 12.9709 32.0878 13.1468 32.21 13.3587L37 22.4687L12.06 47.4687Z" fill="white" fill-opacity="0.2"/>
<path opacity="0.2" d="M32.84 56.9687C32.3039 57.2637 31.7019 57.4184 31.09 57.4184C30.4781 57.4184 29.8761 57.2637 29.34 56.9687L12.03 47.3087V47.5787L29.35 57.3087C29.8849 57.602 30.485 57.7557 31.095 57.7557C31.705 57.7557 32.3052 57.602 32.84 57.3087L50.34 47.5687V47.2987L32.84 56.9687Z" fill="#A52714"/>
<path d="M45.4 16.7987C45.3484 16.4837 45.1744 16.2019 44.9159 16.0146C44.6574 15.8273 44.3354 15.7497 44.02 15.7987C43.7721 15.8317 43.5429 15.9481 43.37 16.1287L37.13 22.3587L32.25 13.0387C32.1772 12.8988 32.0775 12.7746 31.9567 12.6732C31.8359 12.5718 31.6962 12.4952 31.5457 12.4479C31.3953 12.4005 31.237 12.3832 31.0798 12.3971C30.9227 12.411 30.7698 12.4557 30.63 12.5287C30.4181 12.6509 30.2422 12.8268 30.12 13.0387L27.46 18.1387L20.75 5.61874C20.6748 5.48124 20.5731 5.35997 20.4509 5.26187C20.3286 5.16378 20.1882 5.0908 20.0377 5.04713C19.8871 5.00346 19.7295 4.98995 19.5737 5.00739C19.4179 5.02482 19.2671 5.07286 19.13 5.14874C18.9672 5.23564 18.826 5.35807 18.717 5.50694C18.6079 5.65581 18.5338 5.82731 18.5 6.00874L12 47.5287L29.35 57.3087C29.8849 57.602 30.485 57.7557 31.095 57.7557C31.705 57.7557 32.3051 57.602 32.84 57.3087L50.34 47.5687L45.4 16.7987Z" fill="url(#paint2_linear_1_56)"/>
</g>
<defs>
<linearGradient id="paint0_linear_1_56" x1="19.4699" y1="33.3187" x2="17.0799" y2="32.0687" gradientUnits="userSpaceOnUse">
<stop stop-color="#A52714"/>
<stop offset="0.4" stop-color="#A52714" stop-opacity="0.5"/>
<stop offset="0.8" stop-color="#A52714" stop-opacity="0"/>
</linearGradient>
<linearGradient id="paint1_linear_1_56" x1="29.6499" y1="29.8287" x2="28.5799" y2="28.7587" gradientUnits="userSpaceOnUse">
<stop stop-color="#A52714" stop-opacity="0.8"/>
<stop offset="0.5" stop-color="#A52714" stop-opacity="0.21"/>
<stop offset="1" stop-color="#A52714" stop-opacity="0"/>
</linearGradient>
<linearGradient id="paint2_linear_1_56" x1="10.9782" y1="14.2746" x2="51.0015" y2="54.3246" gradientUnits="userSpaceOnUse">
<stop stop-color="white" stop-opacity="0.1"/>
<stop offset="1" stop-color="white" stop-opacity="0"/>
</linearGradient>
</defs>
</svg>
